<svg xmlns="http://www.w3.org/2000/svg" width="16.788" height="16.787" viewBox="0 0 16.788 16.787">
  <path id="ic-excluir" d="M-6128.92,1433.909l-5.272-5.273-5.272,5.273a1,1,0,0,1-1.414,0l-1.415-1.414a1,1,0,0,1,0-1.415l5.273-5.273-5.271-5.272a1,1,0,0,1,0-1.414l1.414-1.415a1,1,0,0,1,1.414,0l5.272,5.272,5.272-5.272a1,1,0,0,1,1.415,0l1.414,1.415a1,1,0,0,1,0,1.414l-5.272,5.272,5.272,5.272a1,1,0,0,1,0,1.415l-1.414,1.414a1,1,0,0,1-.707.292A1,1,0,0,1-6128.92,1433.909Z" transform="translate(6142.586 -1417.414)" fill="#a6a6a6"/>
</svg>
