<svg xmlns="http://www.w3.org/2000/svg" width="20.146" height="15.487" viewBox="0 0 20.146 15.487">
  <g id="ic_menu_sair" transform="translate(-3.375 -6.75)">
    <path id="Caminho_3854" data-name="Caminho 3854" d="M10.125,8.687v5.182h8.712l-2.286-2.32a.63.63,0,1,1,.9-.886l3.341,3.39a.64.64,0,0,1,.179.441.6.6,0,0,1-.048.242.673.673,0,0,1-.131.2h0l-3.341,3.39a.63.63,0,1,1-.9-.886l2.286-2.32H10.125V20.3a1.943,1.943,0,0,0,1.937,1.937H23.684A1.943,1.943,0,0,0,25.622,20.3V8.687A1.943,1.943,0,0,0,23.684,6.75H12.062A1.943,1.943,0,0,0,10.125,8.687Z" transform="translate(-2.101)"/>
    <path id="Caminho_3855" data-name="Caminho 3855" d="M4,17.086a.63.63,0,0,0,0,1.259H8.024V17.086Z" transform="translate(0 -3.217)"/>
  </g>
</svg>
