<svg xmlns="http://www.w3.org/2000/svg" width="21.388" height="26.751" viewBox="0 0 21.388 26.751">
  <g id="ic_menu_notificacoes" transform="translate(-6.761 -3.93)">
    <path id="Caminho_3851" data-name="Caminho 3851" d="M17.827,31.88c2.079,0,3.216-1.471,3.216-3.544H14.6C14.6,30.409,15.741,31.88,17.827,31.88Z" transform="translate(-0.385 -1.198)"/>
    <path id="Caminho_3852" data-name="Caminho 3852" d="M27.878,23.741c-1.03-1.357-3.056-2.153-3.056-8.23,0-6.238-2.755-8.745-5.322-9.347-.241-.06-.415-.14-.415-.394V5.575a1.631,1.631,0,1,0-3.263,0v.194c0,.247-.174.334-.415.394-2.574.608-5.322,3.109-5.322,9.347,0,6.078-2.026,6.867-3.056,8.23a1.327,1.327,0,0,0,1.063,2.126H26.822A1.327,1.327,0,0,0,27.878,23.741Z"/>
  </g>
</svg>
