<svg xmlns="http://www.w3.org/2000/svg" width="16.58" height="19.896" viewBox="0 0 16.58 19.896">
  <path id="ic_menu_contratos" d="M17.922,0H4.658V1.658H17.922ZM4.658,19.9H17.922V18.238H4.658ZM17.922,3.316H4.658A1.663,1.663,0,0,0,3,4.974v9.948A1.663,1.663,0,0,0,4.658,16.58H17.922a1.663,1.663,0,0,0,1.658-1.658V4.974A1.663,1.663,0,0,0,17.922,3.316ZM11.29,5.6A1.865,1.865,0,1,1,9.425,7.461,1.868,1.868,0,0,1,11.29,5.6Zm4.145,8.5H7.145V12.849c0-1.384,2.761-2.072,4.145-2.072s4.145.688,4.145,2.072Z" transform="translate(-3)"/>
</svg>
