<svg xmlns="http://www.w3.org/2000/svg" width="22.896" height="18.603" viewBox="0 0 22.896 18.603">
  <path id="ic_menu_planos" d="M3.577,17.685H.715A.715.715,0,0,0,0,18.4v2.862a.715.715,0,0,0,.715.715H3.577a.715.715,0,0,0,.715-.715V18.4A.715.715,0,0,0,3.577,17.685Zm0-14.31H.715A.715.715,0,0,0,0,4.09V6.952a.715.715,0,0,0,.715.715H3.577a.715.715,0,0,0,.715-.715V4.09A.715.715,0,0,0,3.577,3.375Zm0,7.155H.715A.715.715,0,0,0,0,11.245v2.862a.715.715,0,0,0,.715.715H3.577a.715.715,0,0,0,.715-.715V11.245A.715.715,0,0,0,3.577,10.53Zm18.6,7.87H7.87a.715.715,0,0,0-.715.715v1.431a.715.715,0,0,0,.715.715H22.18a.715.715,0,0,0,.715-.715V19.116A.715.715,0,0,0,22.18,18.4Zm0-14.31H7.87a.715.715,0,0,0-.715.715V6.237a.715.715,0,0,0,.715.715H22.18a.715.715,0,0,0,.715-.715V4.806A.715.715,0,0,0,22.18,4.09Zm0,7.155H7.87a.715.715,0,0,0-.715.715v1.431a.715.715,0,0,0,.715.715H22.18a.715.715,0,0,0,.715-.715V11.961A.715.715,0,0,0,22.18,11.245Z" transform="translate(0 -3.375)"/>
</svg>
