<svg xmlns="http://www.w3.org/2000/svg" width="23.463" height="14.075" viewBox="0 0 23.463 14.075">
  <path id="ic_menu_motos" d="M18.8,9.192a4.638,4.638,0,0,0-1.554.253L16.039,7.432h3.02a.878.878,0,0,0,.88-.88V5.38a.878.878,0,0,0-.88-.88H17.4a.88.88,0,0,0-.652.29L15.371,6.318l-.836-1.393a.886.886,0,0,0-.755-.425H10.848a.588.588,0,0,0-.586.586v.586a.588.588,0,0,0,.586.586h2.434l.7,1.173H8.352C7.7,6.586,6.707,5.966,4.691,5.966H2.656a.892.892,0,0,0-.9.9.879.879,0,0,0,.88.861H4.691a1.941,1.941,0,0,1,1.752.909l-.414.751a4.692,4.692,0,1,0,3.207,5.67h3.086a.88.88,0,0,0,.88-.92,5.552,5.552,0,0,1,2.06-4.582l.458.762A4.693,4.693,0,1,0,18.8,9.192ZM4.691,16.816a2.932,2.932,0,0,1,0-5.865,2.727,2.727,0,0,1,.458.037L3.628,13.751a.881.881,0,0,0,.77,1.3h2.98A2.94,2.94,0,0,1,4.691,16.816Zm17-2.771a2.933,2.933,0,0,1-5.861-.161,2.908,2.908,0,0,1,.81-2.02l1.811,3.02a.589.589,0,0,0,.806.2l.5-.3a.589.589,0,0,0,.2-.806l-1.781-2.965a2.807,2.807,0,0,1,.583-.059A2.932,2.932,0,0,1,21.694,14.045Z" transform="translate(0.002 -4.5)"/>
</svg>
