<svg id="im_cabecalho_site" xmlns="http://www.w3.org/2000/svg" width="127.795" height="32.852" viewBox="0 0 127.795 32.852">
  <path id="Caminho_3841" data-name="Caminho 3841" d="M479.011,31.929c-.4.671-1.217.252-1.846.378a5.465,5.465,0,0,0-4.28,5.035c-.042,2.58-.042,5.182-.021,7.762,0,.818-.189,1.175-1.112,1.154-2.832-.042-2.832-.021-2.853-2.811V41.16c.147-2.035-.168-3.965.42-5.853a9.1,9.1,0,0,1,6.923-6.629A8.468,8.468,0,0,1,478.3,28.3c.566,0,.839.252.818.818,0,.273,0,.566-.021.839C479.1,30.629,479.347,31.363,479.011,31.929Z" transform="translate(-370.512 -22.399)"/>
  <path id="Caminho_3842" data-name="Caminho 3842" d="M331.466,1.5c0,2.433.021,2.475-2.391,2.475-4.93.021-9.86,0-14.769,0V4H299.223c-.315,0-.629-.021-.944-.042-.168-.021-.4,0-.5-.084-.9-.923-.252-2.056-.336-3.063-.042-.65.608-.65,1.112-.629,5.769.252,11.538.084,17.286.1C320.62.3,325.4.409,330.207.2,331.151.157,331.466.6,331.466,1.5Z" transform="translate(-234.903 -0.172)" fill="#00d75c"/>
  <path id="Caminho_3843" data-name="Caminho 3843" d="M130.159,43.878c.4.378.378.608-.021,1.028a8.885,8.885,0,0,1-14.769-3.294,8.755,8.755,0,0,1,4.993-11.034,10.1,10.1,0,0,1,3.881-.629c2.056-.147,4.028.9,5.811,2.5.482.441.65.839,0,1.238-.063.042-.1.084-.168.126-.587.482-.923,1.343-1.678,1.531-.818.21-1.133-.8-1.783-1.091a5.286,5.286,0,0,0-5.286.042,5.2,5.2,0,0,0,.482,9.146,5.09,5.09,0,0,0,5.79-1.028c.5-.524.818-.482,1.259,0C129.152,42.913,129.656,43.416,130.159,43.878Z" transform="translate(-90.719 -23.691)"/>
  <path id="Caminho_3844" data-name="Caminho 3844" d="M3.735,29.651c0,.881-.273,1.259-1.2,1.238-3.063-.063-2.622.42-2.622-2.559-.021-2.832,0-5.664,0-8.5h0c0-3.252.042-6.5-.021-9.734-.021-1.028.357-1.259,1.28-1.217,2.58.084,2.58.063,2.58,2.664C3.735,17.567,3.714,23.609,3.735,29.651Z" transform="translate(0.105 -7.052)"/>
  <path id="Caminho_3845" data-name="Caminho 3845" d="M304.506,36.364a8.894,8.894,0,1,0-16.363,6.545,8,8,0,0,0,5.412,4.112c2.182.4,4.531.608,6.587-.776.378-.252.692-.1.692.4.021,3.419-1.657,5.811-5.077,5.853-.776,0-1.091.315-1.028,1.07.021.315.042.629.042.818,0,2.014,0,2.014,1.888,1.825a5.4,5.4,0,0,0,1.154-.126c3.986-1.2,6.734-4.426,6.692-8.58a52.33,52.33,0,0,1,.189-7.028A11.853,11.853,0,0,0,304.506,36.364Zm-3.461,2.454a5.212,5.212,0,0,1-5.328,4.8c-3.315-.252-5.014-2.622-4.888-5.14.147-3.042,2.266-5.245,5.014-5.14A5.2,5.2,0,0,1,301.045,38.818Z" transform="translate(-226.698 -23.435)" fill="#00d75c"/>
  <path id="Caminho_3846" data-name="Caminho 3846" d="M542,42.661c-.231-2.077.483-4.112-.021-6.23a8.9,8.9,0,0,0-12.713-6.042,8.4,8.4,0,0,0-4.846,7.279,8.5,8.5,0,0,0,4.363,8.223,8.635,8.635,0,0,0,8.5.294c.315-.147.881-.608.965-.1.231,1.28,1.133.818,1.909.923h.378c1.469.042,1.531-.021,1.49-1.51C542,44.528,542.1,43.584,542,42.661Zm-8.685.755a4.968,4.968,0,0,1-5.224-5.1,5.051,5.051,0,0,1,5.161-5.2,5.151,5.151,0,1,1,.063,10.3Z" transform="translate(-414.366 -23.271)"/>
  <path id="Caminho_3847" data-name="Caminho 3847" d="M205.294,30c-4.7-.063-9.167,4.3-8.853,8.874a10.834,10.834,0,0,0,.482,3.042,8.909,8.909,0,0,0,12.524,4.7c.482-.252.86-.357.923.378.042.462.378.545.734.545a16.857,16.857,0,0,1,1.783.021c.881.084,1.154-.273,1.154-1.133a53.062,53.062,0,0,1,.063-6.587A9.039,9.039,0,0,0,205.294,30Zm5.14,9a5,5,0,0,1-5.244,5.035,5.1,5.1,0,0,1-5.14-5.328,5.194,5.194,0,0,1,5.58-4.993A5.12,5.12,0,0,1,210.433,39Z" transform="translate(-155.197 -23.74)"/>
  <path id="Caminho_3848" data-name="Caminho 3848" d="M396.066,38.969a8.938,8.938,0,0,0-17.873.315,8.941,8.941,0,0,0,17.873-.315Zm-3.86.063a4.756,4.756,0,0,1-4.972,5.119,4.888,4.888,0,0,1-5.161-5.119,5.012,5.012,0,0,1,5.056-5.14A4.942,4.942,0,0,1,392.206,39.031Z" transform="translate(-298.832 -23.9)" fill="#00d75c"/>
  <path id="Caminho_3849" data-name="Caminho 3849" d="M415.44,58.688c-.923.944-1.867,1.888-2.811,2.811a.8.8,0,0,1-1.28-.021,8.352,8.352,0,0,0-.755-.734.61.61,0,0,1-.042-1.049l.147-.147c1.426-1.489,1.447-1.489-.021-3-.461-.483-.42-.86.021-1.343,1.217-1.3,1.28-1.3,2.5-.042.692.734,1.447,1.406,2.161,2.119.189.189.462.357.441.671C415.86,58.31,415.629,58.5,415.44,58.688Z" transform="translate(-324.184 -42.885)" fill="#00d75c"/>
  <path id="Caminho_3850" data-name="Caminho 3850" d="M32.673,29.8A9.021,9.021,0,0,0,23.8,38.652a8.959,8.959,0,0,0,17.915-.063A9.035,9.035,0,0,0,32.673,29.8Zm.021,13.971c-2.643-.021-5.245-1.867-5.014-5.664a5.142,5.142,0,0,1,10.258.566A5.033,5.033,0,0,1,32.694,43.77Z" transform="translate(-18.785 -23.583)"/>
</svg>
