<svg xmlns="http://www.w3.org/2000/svg" width="197.423" height="50.751" viewBox="0 0 197.423 50.751">
  <g id="im_texto" transform="translate(4617 1289.328)">
    <g id="Grupo_19221" data-name="Grupo 19221" transform="translate(-4617 -1289.328)">
      <path id="Caminho_3841" data-name="Caminho 3841" d="M484.521,33.907c-.616,1.037-1.88.389-2.852.583a8.442,8.442,0,0,0-6.611,7.778c-.065,3.986-.065,8-.032,11.991,0,1.264-.292,1.815-1.718,1.782-4.375-.065-4.375-.032-4.407-4.343V48.166c.227-3.144-.259-6.125.648-9.042,1.685-5.412,5.153-8.912,10.695-10.241a13.082,13.082,0,0,1,3.176-.583c.875,0,1.3.389,1.264,1.264,0,.421,0,.875-.032,1.3C484.65,31.9,485.039,33.032,484.521,33.907Z" transform="translate(-316.906 -19.184)"/>
      <path id="Caminho_3842" data-name="Caminho 3842" d="M350.086,2.223c0,3.759.032,3.824-3.694,3.824-7.616.032-15.232,0-22.815,0v.032h-23.3c-.486,0-.972-.032-1.458-.065-.259-.032-.616,0-.778-.13-1.393-1.426-.389-3.176-.519-4.732-.065-1,.94-1,1.718-.972,8.912.389,17.824.13,26.7.162,7.389.032,14.778.194,22.2-.13C349.6.149,350.086.829,350.086,2.223Z" transform="translate(-200.911 -0.172)" fill="#00d75c"/>
      <path id="Caminho_3843" data-name="Caminho 3843" d="M138.511,51.475c.616.583.583.94-.032,1.588a13.726,13.726,0,0,1-22.815-5.088c-2.625-6.968,1.231-14.259,7.713-17.047a15.6,15.6,0,0,1,6-.972c3.176-.227,6.222,1.394,8.977,3.857.745.681,1,1.3,0,1.912-.1.065-.162.13-.259.194-.907.745-1.426,2.074-2.593,2.366-1.264.324-1.75-1.232-2.755-1.685-2.755-1.329-5.542-1.523-8.167.065a7.644,7.644,0,0,0-3.857,6.806,7.672,7.672,0,0,0,4.6,7.324c3.241,1.2,6.384,1,8.945-1.588.778-.81,1.264-.745,1.944,0C136.955,49.984,137.733,50.762,138.511,51.475Z" transform="translate(-77.583 -20.289)"/>
      <path id="Caminho_3844" data-name="Caminho 3844" d="M5.827,40.969c0,1.361-.421,1.944-1.847,1.912-4.732-.1-4.051.648-4.051-3.954-.032-4.375,0-8.75,0-13.125h0c0-5.023.065-10.046-.032-15.037C-.136,9.177.448,8.82,1.874,8.885c3.986.13,3.986.1,3.986,4.116C5.827,22.3,5.795,31.635,5.827,40.969Z" transform="translate(0.105 -6.056)"/>
      <path id="Caminho_3845" data-name="Caminho 3845" d="M314.095,40.043a13.74,13.74,0,1,0-25.278,10.111c1.912,3.241,4.7,5.7,8.361,6.352,3.37.616,7,.94,10.176-1.2.583-.389,1.069-.162,1.069.616.032,5.282-2.56,8.977-7.843,9.042-1.2,0-1.685.486-1.588,1.653.032.486.065.972.065,1.264,0,3.111,0,3.111,2.917,2.819a8.339,8.339,0,0,0,1.783-.194c6.158-1.847,10.4-6.838,10.338-13.255a80.846,80.846,0,0,1,.292-10.857A18.311,18.311,0,0,0,314.095,40.043Zm-5.347,3.792a8.052,8.052,0,0,1-8.232,7.421c-5.12-.389-7.745-4.051-7.551-7.94.227-4.7,3.5-8.1,7.746-7.94A8.032,8.032,0,0,1,308.748,43.835Z" transform="translate(-193.893 -20.071)" fill="#00d75c"/>
      <path id="Caminho_3846" data-name="Caminho 3846" d="M551.587,49.884c-.357-3.208.745-6.352-.032-9.625a13.749,13.749,0,0,0-19.639-9.333,12.97,12.97,0,0,0-7.486,11.246c-.356,5.639,2.107,9.852,6.741,12.7,4.181,2.593,8.685,2.463,13.125.454.486-.227,1.361-.94,1.491-.162.357,1.977,1.75,1.264,2.949,1.426h.583c2.269.065,2.366-.032,2.3-2.333C551.587,52.768,551.749,51.31,551.587,49.884ZM538.17,51.051c-5.088-.065-8.037-3.565-8.07-7.875a7.8,7.8,0,0,1,7.972-8.037,7.957,7.957,0,1,1,.1,15.912Z" transform="translate(-354.416 -19.93)"/>
      <path id="Caminho_3847" data-name="Caminho 3847" d="M210.126,30c-7.259-.1-14.162,6.644-13.676,13.709a16.738,16.738,0,0,0,.745,4.7c3.176,8.3,12.25,10.792,19.347,7.259.745-.389,1.329-.551,1.426.583.065.713.583.843,1.134.843a26.041,26.041,0,0,1,2.755.032c1.361.13,1.782-.421,1.782-1.75a81.97,81.97,0,0,1,.1-10.176A13.964,13.964,0,0,0,210.126,30Zm7.94,13.9a7.724,7.724,0,0,1-8.1,7.778,7.882,7.882,0,0,1-7.94-8.232c-.032-4.44,3.921-7.843,8.62-7.713A7.91,7.91,0,0,1,218.065,43.9Z" transform="translate(-132.734 -20.331)"/>
      <path id="Caminho_3848" data-name="Caminho 3848" d="M405.805,43.746a13.808,13.808,0,0,0-27.612.486,13.7,13.7,0,0,0,14.033,13.222C400.879,57.39,406.129,49.709,405.805,43.746Zm-5.963.1c.065,5.38-3.759,7.908-7.681,7.908a7.551,7.551,0,0,1-7.972-7.908A7.743,7.743,0,0,1,392,35.9C396.342,35.936,400.231,39.4,399.842,43.843Z" transform="translate(-255.593 -20.468)" fill="#00d75c"/>
      <path id="Caminho_3849" data-name="Caminho 3849" d="M418.255,61.12c-1.426,1.458-2.884,2.917-4.343,4.343a1.23,1.23,0,0,1-1.977-.032,12.9,12.9,0,0,0-1.167-1.134.943.943,0,0,1-.065-1.62l.227-.227c2.2-2.3,2.236-2.3-.032-4.634-.713-.745-.648-1.329.032-2.074,1.88-2.009,1.977-2.009,3.857-.065,1.069,1.134,2.236,2.171,3.338,3.273.292.292.713.551.681,1.037C418.9,60.536,418.546,60.828,418.255,61.12Z" transform="translate(-277.279 -36.707)" fill="#00d75c"/>
      <path id="Caminho_3850" data-name="Caminho 3850" d="M37.508,29.8A13.935,13.935,0,0,0,23.8,43.475c.065,7.13,6.028,13.806,13.806,13.546,7.81.292,13.968-6.644,13.871-13.644A13.957,13.957,0,0,0,37.508,29.8Zm.032,21.584c-4.083-.032-8.1-2.884-7.745-8.75a7.943,7.943,0,0,1,15.847.875A7.775,7.775,0,0,1,37.541,51.383Z" transform="translate(-16.053 -20.197)"/>
    </g>
  </g>
</svg>
