<?xml version="1.0" encoding="utf-8"?>
<!-- Generator: Adobe Illustrator 19.0.0, SVG Export Plug-In . SVG Version: 6.00 Build 0)  -->
<svg version="1.1" id="Layer_1" xmlns="http://www.w3.org/2000/svg" xmlns:xlink="http://www.w3.org/1999/xlink" x="0px" y="0px"
	 viewBox="0 0 512 512" style="enable-background:new 0 0 512 512;" xml:space="preserve">
<g id="XMLID_2_">
	<path id="XMLID_7_" d="M511.3,287.2c1.9,14.9,0,29.8-4.7,43.8s-12.1,26.1-22.4,36.3c-9.3,10.2-21.4,17.7-35.4,23.3
		c-14,5.6-28.9,8.4-43.8,6.5c-24.2-1.9-44.7-11.2-62.4-27.9c-17.7-16.8-27.9-37.3-29.8-60.5c-1.9-16.8,0-31.7,6.5-46.6
		c6.5-14.9,14.9-27,26.1-38.2l-14.9-22.4c-14,12.1-25.1,26.1-33.5,42.8c-8.4,16.8-12.1,35.4-12.1,54c0,3.7-0.9,7.5-3.7,10.2
		c-2.8,2.8-6.5,4.7-10.2,4.7h-72.6c-3.7,24.2-14.9,44.7-33.5,60.5c-18.6,16.8-40,24.2-65.2,24.2c-27,0-51.2-9.3-70.8-28.9
		C9.3,349.6,0,326.3,0,298.4c0-27,9.3-51.2,28.9-70.8s42.8-28.9,70.8-28.9c11.2,0,22.4,1.9,33.5,5.6l5.6-10.2
		c-18.6-16.8-41-24.2-68-24.2h-14c-3.7,0-7.5-1.9-10.2-4.7c-2.8-2.8-4.7-6.5-4.7-10.2c0-3.7,1.9-7.5,4.7-10.2
		c2.8-2.8,6.5-4.7,10.2-4.7h28.9c11.2,0,22.4,0.9,32.6,2.8c10.2,1.9,18.6,4.7,26.1,8.4c7.5,3.7,13,6.5,15.8,8.4
		c3.7,1.9,7.5,4.7,11.2,8.4h139.7l-18.6-28.9h-49.4c-4.7,0-8.4-1.9-11.2-4.7c-2.8-2.8-4.7-3.7-3.7-8.4c0.9-3.7,1.9-6.5,4.7-8.4
		c2.8-1.9,5.6-3.7,9.3-3.7H298c4.7,0,8.4,1.9,12.1,6.5l15.8,23.3l25.1-25.1c2.8-2.8,6.5-4.7,10.2-4.7h22.4c3.7,0,7.5,1.9,10.2,4.7
		c2.8,2.8,4.7,6.5,4.7,10.2v28.9c0,3.7-1.9,7.5-4.7,10.2c-2.8,2.8-6.5,4.7-10.2,4.7h-40l25.1,38.2c19.6-9.3,40-12.1,61.5-8.4
		c21.4,3.7,39.1,14,54,29.8S509.4,265.8,511.3,287.2z M99.6,370.1c16.8,0,31.7-5.6,44.7-15.8c13-11.2,21.4-24.2,24.2-41H98.7
		c-5.6,0-9.3-1.9-12.1-6.5c-2.8-4.7-2.8-9.3,0-14l32.6-61.5c-6.5-1.9-14-2.8-20.5-2.8c-19.6,0-36.3,6.5-50.3,20.5
		c-14,14-20.5,30.7-20.5,50.3s6.5,36.3,20.5,50.3C62.4,363.6,80.1,370.1,99.6,370.1z M412.6,370.1c19.6,0,36.3-6.5,50.3-20.5
		s20.5-30.7,20.5-50.3c0-19.6-6.5-36.3-20.5-50.3c-14-14-30.7-20.5-50.3-20.5c-9.3,0-17.7,1.9-27,5.6l39.1,57.7
		c1.9,3.7,2.8,7.5,1.9,11.2c-0.9,3.7-2.8,6.5-5.6,9.3c-1.9,1.9-4.7,2.8-8.4,2.8c-5.6,0-9.3-1.9-12.1-6.5l-39.1-57.7
		c-14,14-20.5,30.7-20.5,50.3s6.5,36.3,20.5,50.3C376.2,363.6,393,370.1,412.6,370.1z"/>
</g>
</svg>
