<svg xmlns="http://www.w3.org/2000/svg" xmlns:xlink="http://www.w3.org/1999/xlink" width="123" height="123" viewBox="0 0 123 123">
  <defs>
    <filter id="Elipse_51" x="0" y="0" width="123" height="123" filterUnits="userSpaceOnUse">
      <feOffset dy="3" input="SourceAlpha"/>
      <feGaussianBlur stdDeviation="3" result="blur"/>
      <feFlood flood-opacity="0.161"/>
      <feComposite operator="in" in2="blur"/>
      <feComposite in="SourceGraphic"/>
    </filter>
  </defs>
  <g id="im_logo" transform="translate(-1542 1287)">
    <g transform="matrix(1, 0, 0, 1, 1542, -1287)" filter="url(#Elipse_51)">
      <circle id="Elipse_51-2" data-name="Elipse 51" cx="52.5" cy="52.5" r="52.5" transform="translate(9 6)"/>
    </g>
    <g id="Grupo_19535" data-name="Grupo 19535" transform="translate(-470.566 -112.583)">
      <path id="Caminho_3842" data-name="Caminho 3842" d="M354.94,2.411c0,4.1.035,4.176-4.034,4.176-8.316.035-16.632,0-24.913,0v.035H300.55c-.531,0-1.062-.035-1.592-.071-.283-.035-.672,0-.849-.142-1.522-1.557-.425-3.468-.566-5.167-.071-1.1,1.026-1.1,1.876-1.062,9.732.425,19.463.142,29.159.177,8.068.035,16.137.212,24.24-.142C354.409.146,354.94.89,354.94,2.411Z" transform="translate(1748.95 -1143.589)" fill="#00d75c"/>
      <path id="Caminho_3845" data-name="Caminho 3845" d="M316.595,41a15,15,0,1,0-27.6,11.041c2.088,3.539,5.131,6.228,9.13,6.936,3.68.672,7.644,1.026,11.112-1.309.637-.425,1.168-.177,1.168.672.035,5.768-2.8,9.8-8.564,9.873-1.309,0-1.84.531-1.734,1.8.035.531.071,1.062.071,1.38,0,3.4,0,3.4,3.185,3.079a9.105,9.105,0,0,0,1.946-.212c6.724-2.017,11.359-7.467,11.289-14.473a88.278,88.278,0,0,1,.319-11.855A19.994,19.994,0,0,0,316.595,41Zm-5.839,4.14a8.792,8.792,0,0,1-8.988,8.1c-5.591-.425-8.458-4.423-8.245-8.67.248-5.131,3.822-8.847,8.458-8.67A8.771,8.771,0,0,1,310.756,45.142Z" transform="translate(1755.659 -1162.61)" fill="#00d75c"/>
      <path id="Caminho_3848" data-name="Caminho 3848" d="M408.344,44.992a15.077,15.077,0,0,0-30.15.531,14.954,14.954,0,0,0,15.323,14.438C402.965,59.89,408.7,51.5,408.344,44.992Zm-6.511.106c.071,5.874-4.1,8.635-8.387,8.635-4.99,0-8.67-3.291-8.705-8.635a8.455,8.455,0,0,1,8.528-8.67C398.011,36.463,402.258,40.25,401.833,45.1Z" transform="translate(1696.678 -1162.991)" fill="#00d75c"/>
      <path id="Caminho_3849" data-name="Caminho 3849" d="M418.989,61.753c-1.557,1.592-3.149,3.185-4.742,4.742a1.343,1.343,0,0,1-2.159-.035,14.087,14.087,0,0,0-1.274-1.239,1.029,1.029,0,0,1-.071-1.769l.248-.248c2.406-2.513,2.442-2.513-.035-5.06-.779-.814-.708-1.451.035-2.265,2.052-2.194,2.159-2.194,4.211-.071,1.168,1.239,2.442,2.371,3.645,3.574.318.318.779.6.743,1.132C419.7,61.117,419.307,61.435,418.989,61.753Z" transform="translate(1675.949 -1178.514)" fill="#00d75c"/>
    </g>
  </g>
</svg>
