<svg xmlns="http://www.w3.org/2000/svg" xmlns:xlink="http://www.w3.org/1999/xlink" width="67" height="67" viewBox="0 0 67 67">
  <defs>
    <filter id="Elipse_51" x="0" y="0" width="67" height="67" filterUnits="userSpaceOnUse">
      <feOffset dy="3" input="SourceAlpha"/>
      <feGaussianBlur stdDeviation="3" result="blur"/>
      <feFlood flood-opacity="0.161"/>
      <feComposite operator="in" in2="blur"/>
      <feComposite in="SourceGraphic"/>
    </filter>
  </defs>
  <g id="im_menu_logo" transform="translate(-2026 -237)">
    <g transform="matrix(1, 0, 0, 1, 2026, 237)" filter="url(#Elipse_51)">
      <circle id="Elipse_51-2" data-name="Elipse 51" cx="24.5" cy="24.5" r="24.5" transform="translate(9 6)"/>
    </g>
    <g id="Grupo_19535" data-name="Grupo 19535" transform="translate(2044.8 254.667)">
      <path id="Caminho_3842" data-name="Caminho 3842" d="M324.194,1.217c0,1.916.017,1.949-1.883,1.949-3.881.017-7.762,0-11.626,0v.017H298.811c-.248,0-.5-.017-.743-.033-.132-.017-.314,0-.4-.066-.71-.727-.2-1.618-.264-2.411-.033-.512.479-.512.875-.5,4.541.2,9.083.066,13.608.083,3.765.017,7.53.1,11.312-.066C323.946.16,324.194.507,324.194,1.217Z" transform="translate(-295.576 -0.172)" fill="#00d75c"/>
      <path id="Caminho_3845" data-name="Caminho 3845" d="M300.761,34.927a7,7,0,1,0-12.881,5.152,6.294,6.294,0,0,0,4.261,3.237c1.717.314,3.567.479,5.185-.611.3-.2.545-.083.545.314.017,2.692-1.3,4.574-4,4.607-.611,0-.859.248-.809.842.016.248.033.5.033.644,0,1.585,0,1.585,1.486,1.437a4.249,4.249,0,0,0,.908-.1,6.957,6.957,0,0,0,5.268-6.754,41.192,41.192,0,0,1,.149-5.532A9.33,9.33,0,0,0,300.761,34.927Zm-2.725,1.932a4.1,4.1,0,0,1-4.195,3.782,3.841,3.841,0,0,1-3.848-4.046,3.927,3.927,0,0,1,3.947-4.046A4.093,4.093,0,0,1,298.036,36.859Z" transform="translate(-286.907 -24.75)" fill="#00d75c"/>
      <path id="Caminho_3848" data-name="Caminho 3848" d="M392.262,37.1a7.036,7.036,0,0,0-14.07.248,7.038,7.038,0,0,0,14.07-.248Zm-3.039.05a3.744,3.744,0,0,1-3.914,4.029,3.848,3.848,0,0,1-4.062-4.029,3.946,3.946,0,0,1,3.98-4.046A3.89,3.89,0,0,1,389.224,37.152Z" transform="translate(-363.116 -25.241)" fill="#00d75c"/>
      <path id="Caminho_3849" data-name="Caminho 3849" d="M414.341,57.738c-.727.743-1.47,1.486-2.213,2.213a.627.627,0,0,1-1.007-.017,6.572,6.572,0,0,0-.595-.578.48.48,0,0,1-.033-.826l.116-.116c1.123-1.173,1.139-1.173-.017-2.362-.363-.38-.33-.677.017-1.057.958-1.024,1.007-1.024,1.965-.033.545.578,1.139,1.106,1.7,1.668.149.149.363.281.347.528C414.671,57.441,414.489,57.59,414.341,57.738Z" transform="translate(-389.901 -45.298)" fill="#00d75c"/>
    </g>
  </g>
</svg>
